<?xml version="1.0" encoding="iso-8859-1"?>
<!-- Uploaded to: SVG Repo, www.svgrepo.com, Generator: SVG Repo Mixer Tools -->
<svg height="800px" width="800px" version="1.1" id="Layer_1" xmlns="http://www.w3.org/2000/svg" xmlns:xlink="http://www.w3.org/1999/xlink" 
	 viewBox="0 0 512.002 512.002" xml:space="preserve">
<polygon style="fill:#2B8E4A;" points="7.123,334.693 147.626,184.868 360.295,184.868 504.877,334.693 "/>
<path style="fill:#54CE8E;" d="M412.221,253.956c0,0-10.294,145.864,52.821,223.004H44.956
	c63.114-77.14,52.821-223.004,52.821-223.004l117.74-152.679l36.057-46.292l158.62,174.278l-3.404,7.488L412.221,253.956z"/>
<polygon style="fill:#2B8E4A;" points="176.657,476.357 255.997,173.156 335.337,476.357 "/>
<g>
	<path style="fill:#3ABD64;" d="M255.997,173.156c0,0-54.091,196.38-130.063,232.331l50.723,70.869L255.997,173.156z"/>
	<path style="fill:#3ABD64;" d="M256.003,173.156c0,0,54.091,196.38,130.063,232.331l-50.723,70.87L256.003,173.156z"/>
</g>
<path style="fill:#9CE0B8;" d="M7.123,334.693C129.159,242.275,256,69.337,256,69.337s126.84,172.937,248.877,265.355v-34.294
	C382.84,207.979,256,35.043,256,35.043S129.159,207.979,7.123,300.397V334.693z"/>
<g style="opacity:0.23;">
	<path style="fill:#2B8E4A;" d="M414.76,334.693c5.175,46.459-13.547,105.906-13.547,105.906H67.619
		c-6.237,13.095-13.71,25.419-22.663,36.362h420.086C433.063,437.874,419.935,381.152,414.76,334.693"/>
</g>
<path d="M510.88,338.517c0.037-0.058,0.071-0.116,0.107-0.175c0.131-0.22,0.252-0.447,0.36-0.681
	c0.017-0.038,0.037-0.073,0.053-0.111c0.12-0.274,0.223-0.556,0.308-0.847c0.014-0.049,0.024-0.1,0.039-0.149
	c0.065-0.239,0.116-0.483,0.157-0.732c0.012-0.075,0.024-0.15,0.035-0.226c0.038-0.297,0.064-0.597,0.064-0.905v-34.294
	c0-2.23-1.045-4.332-2.823-5.679C389.389,204.004,263.006,32.551,261.743,30.83c-1.342-1.83-3.475-2.91-5.744-2.91
	s-4.402,1.081-5.744,2.91c-1.261,1.721-127.61,173.148-247.432,263.889C1.045,296.065,0,298.167,0,300.397v34.294
	c0,0.307,0.026,0.607,0.064,0.905c0.01,0.075,0.022,0.151,0.035,0.226c0.04,0.249,0.092,0.493,0.157,0.733
	c0.013,0.049,0.023,0.099,0.038,0.148c0.085,0.29,0.188,0.573,0.308,0.847c0.016,0.038,0.037,0.073,0.053,0.111
	c0.108,0.234,0.228,0.461,0.36,0.681c0.036,0.059,0.069,0.117,0.107,0.175c0.159,0.248,0.328,0.489,0.515,0.715
	c0.006,0.008,0.014,0.014,0.02,0.022c0.18,0.216,0.376,0.417,0.581,0.611c0.057,0.054,0.114,0.106,0.173,0.158
	c0.199,0.176,0.406,0.343,0.624,0.496c0.024,0.017,0.046,0.036,0.07,0.053c0.25,0.172,0.515,0.324,0.788,0.463
	c0.021,0.011,0.04,0.025,0.062,0.037c0.031,0.015,0.063,0.024,0.095,0.039c0.245,0.118,0.497,0.223,0.757,0.312
	c0.037,0.012,0.072,0.027,0.11,0.04c0.284,0.093,0.576,0.168,0.875,0.225c0.061,0.011,0.121,0.018,0.182,0.027
	c0.228,0.037,0.459,0.063,0.694,0.078c0.091,0.006,0.181,0.011,0.272,0.013c0.063,0.002,0.124,0.009,0.187,0.009h80.015
	c-5.644,43.88-18.633,95.113-47.698,130.636c-1.743,2.13-2.102,5.073-0.924,7.56c1.178,2.487,3.685,4.072,6.437,4.072h420.086
	c2.752,0,5.258-1.585,6.437-4.072c1.179-2.487,0.819-5.431-0.924-7.56c-29.042-35.496-42.029-86.743-47.674-130.635h81.997
	c0,0,0,0,0.001,0l0,0c0.003,0,0.005,0,0.008,0c0.259,0,0.516-0.016,0.768-0.044c0.064-0.007,0.127-0.02,0.191-0.03
	c0.195-0.026,0.39-0.058,0.58-0.101c0.071-0.016,0.142-0.037,0.214-0.055c0.184-0.047,0.365-0.1,0.543-0.161
	c0.071-0.024,0.142-0.051,0.213-0.078c0.181-0.069,0.359-0.144,0.533-0.227c0.039-0.018,0.08-0.032,0.119-0.051
	c0.021-0.01,0.041-0.025,0.062-0.037c0.273-0.139,0.536-0.291,0.788-0.463c0.024-0.017,0.047-0.037,0.071-0.053
	c0.218-0.153,0.424-0.32,0.623-0.495c0.059-0.052,0.117-0.104,0.174-0.158c0.205-0.193,0.4-0.395,0.581-0.611
	c0.006-0.008,0.014-0.014,0.02-0.022C510.552,339.006,510.721,338.765,510.88,338.517z M14.246,303.925
	C120.184,222.673,230.002,81.278,256,46.923c25.998,34.355,135.816,175.749,241.754,257.001v16.215
	C381.491,227.585,262.966,66.791,261.743,65.125c-1.342-1.83-3.475-2.91-5.744-2.91s-4.402,1.081-5.744,2.91
	c-1.221,1.667-119.746,162.461-236.009,255.014V303.925z M27.73,327.569c21.39-17.346,42.786-36.84,63.47-57.129
	c0.168,13.234-0.137,33.621-2.446,57.129H27.73z M297.804,304.786c20.746,42.966,47.243,84.531,77.776,103.114l-37.194,51.967
	L297.804,304.786z M326.268,469.837H185.726l70.271-268.545L326.268,469.837z M173.611,459.862l-37.19-51.961
	c30.526-18.579,57.019-60.132,77.763-103.088L173.611,459.862z M348.769,469.837l43.09-60.204c1.229-1.718,1.632-3.89,1.102-5.934
	c-0.53-2.043-1.939-3.747-3.848-4.649c-72.15-34.143-125.71-225.853-126.243-227.785c-0.026-0.098-0.064-0.19-0.095-0.286
	c-0.017-0.055-0.036-0.11-0.054-0.164c-0.06-0.174-0.127-0.344-0.199-0.51c-0.01-0.023-0.018-0.047-0.03-0.07
	c-0.006-0.014-0.014-0.026-0.02-0.04c-0.081-0.179-0.17-0.353-0.265-0.522c-0.013-0.024-0.027-0.048-0.042-0.072
	c-0.101-0.175-0.208-0.345-0.323-0.51c-0.016-0.023-0.033-0.046-0.049-0.068c-0.114-0.16-0.233-0.314-0.359-0.463
	c-0.026-0.032-0.055-0.062-0.082-0.094c-0.119-0.135-0.241-0.267-0.369-0.392c-0.045-0.044-0.091-0.085-0.135-0.128
	c-0.117-0.109-0.236-0.214-0.36-0.314c-0.043-0.035-0.084-0.07-0.128-0.104c-0.014-0.011-0.03-0.02-0.044-0.032
	c-0.006-0.005-0.013-0.009-0.02-0.014c-0.115-0.086-0.231-0.171-0.351-0.25c-0.075-0.051-0.153-0.099-0.231-0.147
	c-0.1-0.061-0.2-0.122-0.303-0.178c-0.024-0.013-0.049-0.024-0.072-0.038c-0.075-0.04-0.152-0.078-0.229-0.115
	c-0.135-0.066-0.273-0.127-0.412-0.184c-0.072-0.03-0.146-0.058-0.22-0.085c-0.046-0.017-0.091-0.038-0.136-0.054
	c-0.007-0.002-0.013-0.005-0.02-0.008c-0.104-0.036-0.211-0.064-0.316-0.095c-0.039-0.011-0.075-0.027-0.114-0.038
	c-0.029-0.008-0.057-0.011-0.085-0.019c-0.161-0.043-0.325-0.077-0.488-0.109c-0.034-0.006-0.067-0.016-0.101-0.022
	c-0.01-0.002-0.02-0.005-0.031-0.007c-0.032-0.005-0.062-0.007-0.094-0.012c-0.144-0.022-0.291-0.038-0.438-0.052
	c-0.097-0.009-0.193-0.018-0.29-0.023c-0.101-0.005-0.202-0.006-0.303-0.007c-0.021,0-0.041-0.005-0.062-0.005
	c-0.02,0-0.04,0.005-0.06,0.005c-0.102,0.001-0.204,0.002-0.304,0.007c-0.094,0.005-0.186,0.014-0.28,0.023
	c-0.15,0.013-0.299,0.03-0.447,0.053c-0.028,0.004-0.057,0.005-0.086,0.01c-0.027,0.005-0.053,0.013-0.08,0.017
	c-0.017,0.003-0.034,0.008-0.05,0.011c-0.168,0.032-0.334,0.067-0.499,0.111c-0.026,0.007-0.054,0.01-0.08,0.018
	c-0.037,0.01-0.071,0.025-0.108,0.036c-0.105,0.031-0.211,0.058-0.313,0.094c-0.026,0.009-0.051,0.021-0.077,0.031
	c-0.032,0.011-0.062,0.025-0.094,0.037c-0.071,0.026-0.14,0.054-0.211,0.082c-0.142,0.058-0.283,0.121-0.421,0.188
	c-0.069,0.034-0.137,0.067-0.205,0.102c-0.04,0.02-0.079,0.04-0.118,0.061c-0.096,0.053-0.188,0.11-0.282,0.167
	c-0.076,0.047-0.151,0.094-0.225,0.142c-0.114,0.075-0.225,0.155-0.335,0.237c-0.037,0.027-0.075,0.053-0.112,0.081
	c-0.034,0.026-0.065,0.055-0.099,0.082c-0.125,0.102-0.245,0.208-0.364,0.317c-0.045,0.042-0.09,0.082-0.132,0.125
	c-0.068,0.067-0.138,0.132-0.205,0.202c-0.021,0.022-0.04,0.046-0.06,0.069c-0.037,0.04-0.071,0.081-0.107,0.122
	c-0.027,0.032-0.055,0.062-0.081,0.094c-0.126,0.149-0.245,0.303-0.359,0.463c-0.016,0.023-0.034,0.046-0.049,0.069
	c-0.011,0.016-0.023,0.032-0.034,0.048c-0.021,0.032-0.045,0.06-0.066,0.092c-0.079,0.119-0.151,0.244-0.223,0.369
	c-0.014,0.024-0.028,0.048-0.042,0.072c-0.085,0.152-0.165,0.307-0.24,0.466c-0.028,0.061-0.055,0.122-0.082,0.184
	c-0.069,0.161-0.133,0.324-0.191,0.491c-0.019,0.054-0.037,0.109-0.054,0.164c-0.031,0.096-0.067,0.188-0.095,0.286
	c-0.532,1.932-54.093,193.643-126.243,227.785c-1.908,0.903-3.318,2.606-3.848,4.649c-0.53,2.044-0.126,4.218,1.102,5.934
	l43.09,60.204H59.156c22.113-32.419,36.545-76.899,42.955-132.491c0.072-0.63,0.138-1.25,0.208-1.875
	c0.003-0.029,0.007-0.057,0.009-0.085c4.238-38.094,3.23-69.015,2.738-78.765C176.724,184.094,237.524,105.631,256,81.217
	c18.312,24.197,78.207,101.492,149.037,173.476c-0.407,6.86-2.002,40.57,2.85,82.652c6.41,55.592,20.84,100.072,42.955,132.491
	H348.769V469.837z M418.831,268.5c21.294,20.984,43.368,41.172,65.438,59.07h-63.007C418.835,302.885,418.614,281.634,418.831,268.5
	z"/>
</svg>